<?xml version="1.0" standalone="no"?>
<!DOCTYPE svg PUBLIC "-//W3C//DTD SVG 20010904//EN"
 "http://www.w3.org/TR/2001/REC-SVG-20010904/DTD/svg10.dtd">
<svg version="1.0" xmlns="http://www.w3.org/2000/svg"
 width="1024.000000pt" height="1024.000000pt" viewBox="0 0 1024.000000 1024.000000"
 preserveAspectRatio="xMidYMid meet">
<metadata>
Created by potrace 1.16, written by Peter Selinger 2001-2019
</metadata>
<g transform="translate(0.000000,1024.000000) scale(0.100000,-0.100000)"
fill="#000000" stroke="none">
<path d="M4935 9053 c-434 -35 -899 -153 -1220 -308 -571 -278 -1000 -638
-1305 -1095 -320 -481 -486 -935 -545 -1490 -16 -151 -14 -602 4 -705 5 -33
17 -107 25 -165 21 -138 70 -364 103 -470 14 -47 54 -155 88 -240 134 -334
265 -553 503 -847 l67 -82 144 0 143 -1 -63 68 c-318 337 -529 693 -667 1122
-68 209 -90 305 -134 575 -20 126 -17 723 5 840 84 452 135 612 297 938 184
368 394 637 735 939 170 151 626 424 840 503 263 98 419 143 585 169 105 16
314 44 345 46 352 17 495 10 845 -44 169 -26 429 -102 620 -181 95 -39 325
-156 416 -211 197 -118 494 -360 647 -527 65 -70 232 -285 294 -377 212 -317
405 -773 468 -1110 24 -132 55 -458 55 -587 0 -148 -16 -368 -34 -481 -35
-213 -142 -581 -218 -752 -123 -276 -257 -493 -447 -725 -72 -87 -67 -82 -128
-148 -24 -25 -43 -48 -43 -51 0 -3 60 -6 133 -6 l133 0 60 72 c301 362 489
724 628 1217 92 322 136 777 107 1106 -99 1141 -754 2136 -1741 2647 -322 166
-612 261 -990 322 -239 39 -557 55 -755 39z"/>
<path d="M4966 8759 c-98 -4 -186 -11 -195 -15 -9 -3 -25 -8 -36 -9 -250 -28
-549 -115 -835 -242 -136 -60 -179 -83 -345 -182 -146 -87 -229 -147 -350
-250 -309 -265 -538 -555 -713 -906 -88 -175 -149 -317 -176 -410 -10 -33 -26
-85 -36 -116 -113 -340 -147 -860 -84 -1294 84 -589 385 -1178 808 -1583 48
-46 81 -84 74 -86 -7 -3 -20 -7 -28 -9 -8 -3 919 -6 2061 -6 l2076 -1 84 88
c292 303 476 583 637 967 66 159 144 425 167 575 4 25 9 52 10 60 29 157 39
625 16 765 -15 92 -46 265 -62 345 -34 164 -133 441 -242 671 -176 375 -539
812 -872 1051 -253 181 -493 314 -710 393 -55 20 -116 42 -135 50 -19 8 -53
19 -75 24 -22 5 -101 25 -176 45 -76 19 -159 37 -185 40 -27 3 -79 10 -116 15
-37 6 -129 14 -205 16 -76 3 -147 7 -158 9 -11 1 -100 -1 -199 -5z m604 -163
c273 -48 308 -57 534 -133 349 -117 724 -340 984 -587 94 -89 271 -282 322
-352 140 -188 278 -423 351 -594 233 -548 288 -1156 158 -1749 -114 -522 -346
-959 -721 -1355 l-94 -98 -29 63 c-28 62 -65 105 -140 166 -22 18 -65 52 -96
77 -31 26 -59 46 -62 46 -4 0 -30 18 -59 40 -29 22 -61 40 -70 40 -10 0 -18 4
-18 9 0 5 -17 17 -37 26 -21 10 -56 26 -78 37 -56 27 -268 93 -403 125 l-113
28 3 65 c3 63 4 65 38 82 19 9 60 22 90 28 236 50 403 118 493 200 62 57 84
101 122 246 23 88 26 118 25 266 l0 167 44 19 c25 12 51 33 62 51 10 17 22 31
26 31 4 0 7 3 5 8 -1 4 17 25 40 46 24 21 56 66 73 100 56 113 65 342 19 491
-17 58 -30 79 -73 121 -36 35 -72 59 -112 73 -32 13 -64 26 -69 31 -7 6 -12
88 -14 227 -2 244 -14 324 -60 418 -34 69 -117 157 -197 210 -94 63 -356 141
-564 169 -63 8 -167 22 -230 30 -63 9 -187 18 -275 21 -229 8 -225 7 -225 56
0 60 23 104 69 133 49 31 82 80 112 161 18 48 23 83 23 170 l1 110 -38 57
c-55 83 -155 145 -242 149 -138 7 -251 -61 -295 -177 -49 -133 -51 -222 -5
-322 32 -69 73 -113 143 -153 57 -33 59 -38 46 -144 l-6 -50 -97 3 c-167 6
-578 -23 -751 -54 -159 -28 -184 -34 -279 -75 -125 -54 -190 -100 -288 -202
-64 -69 -87 -102 -114 -164 l-34 -78 -3 -209 c-3 -148 -1 -206 7 -202 6 4 11
3 11 -2 0 -5 -24 -12 -54 -15 -29 -3 -75 -16 -102 -30 -57 -29 -133 -106 -163
-165 -24 -46 -51 -175 -51 -238 l0 -42 -64 -1 c-35 0 -76 -5 -91 -11 -25 -9
-26 -13 -20 -53 4 -23 15 -61 25 -84 23 -52 50 -56 111 -17 23 14 43 23 46 21
2 -3 12 -41 22 -84 21 -96 75 -197 135 -250 41 -36 121 -73 158 -73 14 0 16
-15 17 -128 0 -101 5 -144 22 -198 29 -96 102 -227 168 -302 87 -99 177 -142
436 -207 197 -50 194 -47 201 -196 4 -98 3 -111 -8 -89 -11 20 -22 25 -53 26
-22 1 -47 -2 -55 -6 -8 -5 -33 -11 -55 -14 -91 -15 -242 -47 -265 -57 -14 -6
-36 -13 -49 -15 -13 -3 -35 -11 -50 -18 -23 -12 -87 -32 -131 -41 -8 -2 -16
-4 -17 -5 -2 -2 -6 -3 -10 -5 -64 -18 -301 -171 -354 -229 -16 -17 -50 -61
-75 -98 l-46 -66 -96 106 c-193 217 -323 408 -438 647 -186 384 -276 788 -277
1250 -1 270 19 446 74 675 105 430 266 755 547 1106 432 539 1073 895 1817
1010 138 21 175 23 450 19 209 -2 326 -8 385 -19z m-386 -525 c53 -55 44 -169
-15 -190 -36 -12 -103 10 -119 40 -22 40 0 147 34 171 25 18 73 8 100 -21z
m113 -826 c577 -8 759 -26 958 -95 147 -51 177 -65 214 -96 30 -25 67 -81 59
-90 -2 -2 -53 1 -114 6 -60 5 -152 11 -204 14 -52 4 -203 14 -335 23 -273 18
-1022 23 -1396 9 -266 -11 -262 -12 -196 86 39 58 47 65 112 89 63 24 89 27
250 33 99 4 225 13 280 20 55 7 108 12 117 9 10 -2 125 -6 255 -8z m348 -350
c240 -3 386 -8 673 -25 181 -10 207 -21 249 -104 l27 -51 -3 -220 c-7 -428 -6
-1091 2 -1161 10 -91 -6 -195 -38 -250 -31 -53 -103 -111 -168 -136 -65 -25
-233 -62 -352 -78 -49 -6 -130 -19 -180 -27 -49 -8 -124 -19 -165 -23 -103
-12 -550 -12 -630 0 -36 5 -92 12 -125 15 -33 3 -80 10 -105 15 -75 15 -135
21 -202 21 -59 0 -246 31 -294 49 -12 5 -34 25 -49 44 -26 35 -27 39 -29 185
-1 82 1 148 4 146 3 -2 4 170 2 383 -4 311 -7 388 -18 400 -11 10 -15 56 -16
195 -3 180 2 609 7 615 1 1 193 5 426 9 233 3 426 8 429 10 3 3 75 2 160 -2
85 -4 263 -8 395 -10z m-1848 -511 c45 -20 82 -72 101 -141 12 -44 16 -103 17
-243 0 -194 -7 -234 -57 -353 -23 -54 -45 -64 -138 -63 -63 1 -61 -10 -30 126
26 114 31 360 11 480 -14 78 -48 158 -85 199 l-21 23 85 -7 c47 -3 100 -13
117 -21z m-285 -196 c32 -62 33 -66 36 -213 3 -143 2 -153 -22 -207 -23 -51
-29 -58 -55 -58 -21 0 -38 10 -61 37 -104 118 -99 318 12 476 31 44 53 35 90
-35z m3315 -76 c12 -6 29 -32 39 -57 15 -39 15 -55 5 -115 -13 -83 -47 -176
-65 -183 -11 -4 -14 28 -15 160 -1 92 -4 176 -7 189 -6 25 6 27 43 6z m-1245
-1584 c3 -7 2 -49 -1 -93 -5 -60 -9 -79 -20 -77 -12 2 -95 5 -516 16 l-90 2
-3 74 -3 75 291 -2 c169 -1 292 2 295 8 9 13 42 11 47 -3z m-937 -320 c6 0 19
3 30 7 17 6 17 5 5 -5 -12 -9 -9 -10 15 -6 17 4 208 9 427 13 378 5 534 1 523
-16 -2 -5 7 -19 21 -32 32 -30 128 -40 122 -12 -2 9 -10 18 -18 20 -13 4 -13
3 0 -6 12 -8 8 -11 -20 -12 -49 -2 -61 1 -77 17 -24 23 -5 34 61 34 63 0 64 0
70 -31 13 -66 17 -64 -107 -62 -61 1 -137 4 -167 7 -30 3 -81 1 -112 -4 -97
-18 -264 -29 -437 -31 -91 0 -188 -5 -216 -11 -44 -9 -65 -12 -137 -17 -12 -1
-16 -7 -11 -18 3 -12 -1 -10 -12 5 -9 13 -23 21 -30 18 -14 -5 -25 14 -25 44
0 10 -8 31 -17 48 -9 16 -14 36 -10 47 6 15 14 17 60 10 28 -4 57 -7 62 -7z"/>
<path d="M4802 6435 c-59 -27 -128 -104 -143 -159 -6 -23 -9 -87 -7 -146 3
-83 9 -114 26 -147 44 -83 145 -138 227 -121 163 32 183 45 236 150 27 53 30
67 24 112 -12 95 -46 218 -70 257 -34 53 -72 70 -166 73 -65 3 -87 -1 -127
-19z"/>
<path d="M6080 6442 c-110 -41 -157 -93 -186 -209 -16 -63 -17 -79 -5 -140 16
-81 43 -120 114 -168 44 -30 60 -35 109 -35 92 0 214 66 251 134 19 35 22 56
22 151 -1 93 -4 118 -24 162 -27 60 -51 84 -109 106 -53 21 -113 20 -172 -1z"/>
<path d="M5900 5509 c-64 -8 -398 -10 -862 -5 -114 1 -129 -1 -155 -20 -54
-40 -66 -84 -66 -230 0 -118 3 -135 23 -172 37 -66 46 -67 440 -78 339 -8 582
6 773 46 75 16 146 34 157 40 41 22 50 60 50 214 l0 144 -29 30 c-18 17 -45
32 -68 35 -50 9 -169 6 -263 -4z m184 -115 c3 -9 6 -42 6 -75 0 -49 -3 -59
-17 -60 -10 -1 -49 -3 -86 -5 -63 -2 -69 -1 -79 21 -6 13 -8 40 -4 60 9 45 40
59 162 74 7 0 15 -6 18 -15z m-884 -9 c6 -8 12 -36 13 -62 l2 -48 -77 -1 c-43
0 -81 -3 -84 -7 -4 -4 25 -7 66 -7 63 0 71 -2 60 -15 -10 -12 -9 -15 7 -15 11
0 22 -2 25 -5 10 -11 -19 -89 -35 -94 -9 -3 -47 -4 -84 -1 l-68 5 -9 48 c-7
39 -5 52 7 64 13 13 13 21 -4 69 -11 29 -19 58 -19 63 0 14 26 19 111 20 56 1
80 -3 89 -14z m294 -1 c28 -28 14 -104 -19 -104 -8 0 -15 -5 -15 -11 0 -5 6
-7 13 -4 6 4 3 -1 -7 -9 -23 -19 -46 -22 -28 -4 21 21 13 25 -35 18 -59 -9
-84 -5 -100 17 -25 33 -6 93 29 92 13 0 39 4 58 9 53 15 87 14 104 -4z m241
-4 c3 -5 17 -10 30 -10 13 0 29 -8 34 -17 11 -23 12 -86 0 -104 -5 -8 -9 -9
-9 -3 0 6 -24 11 -57 13 -32 1 -72 6 -90 12 -35 11 -51 37 -28 45 8 4 15 12
15 19 0 34 88 72 105 45z m-239 -154 c25 -26 34 -62 19 -82 -12 -16 -27 -19
-105 -18 -50 1 -94 4 -97 8 -4 3 -7 25 -7 48 l-1 43 78 -2 c45 -2 77 1 77 7 0
15 19 12 36 -4z m292 -9 c6 -5 12 -24 12 -42 0 -30 -4 -35 -32 -43 -47 -12
-99 -4 -125 21 -24 22 -31 63 -12 69 21 7 144 3 157 -5z"/>
<path d="M1830 3302 c0 -1 10 -22 23 -45 22 -41 22 -50 25 -437 4 -421 0 -471
-43 -534 l-23 -35 194 2 c107 1 194 5 194 8 0 3 -11 16 -24 28 -41 39 -46 91
-42 471 l3 355 69 3 c56 2 76 -2 108 -20 57 -33 77 -66 83 -134 4 -52 2 -64
-23 -101 -33 -49 -94 -83 -152 -83 -50 0 -57 -8 -26 -32 32 -26 63 -88 109
-221 76 -223 97 -259 156 -271 17 -3 88 -6 156 -6 106 0 124 2 120 15 -4 8
-37 61 -75 117 -95 143 -172 273 -172 291 0 8 22 31 49 51 57 42 94 88 123
153 17 38 19 59 15 111 -17 173 -150 288 -361 312 -83 10 -486 11 -486 2z"/>
<path d="M4044 3291 c-104 -38 -162 -90 -241 -217 -30 -48 -53 -103 -70 -165
-21 -82 -24 -107 -19 -201 5 -90 11 -120 35 -178 93 -218 216 -300 451 -300
101 0 106 -4 66 -62 l-23 -35 64 -32 c35 -17 78 -31 95 -31 45 0 100 22 94 37
-4 9 2 12 17 10 12 -2 16 -2 9 0 -7 3 -9 9 -6 15 4 7 2 8 -4 4 -20 -12 -13 10
8 29 22 20 23 24 11 44 -7 11 -17 7 -48 -22 -45 -43 -51 -45 -57 -14 -7 35 -3
96 6 91 4 -3 8 2 8 10 0 9 12 22 28 30 94 49 184 236 197 412 13 166 -30 307
-137 449 -48 64 -60 73 -133 105 -73 31 -89 34 -190 36 -85 2 -122 -1 -161
-15z m259 -202 c64 -42 88 -133 88 -329 -1 -119 -11 -213 -25 -227 -3 -3 -48
-1 -98 5 -94 11 -169 4 -176 -17 -6 -19 -38 -12 -61 13 -37 39 -51 107 -51
242 0 101 4 133 21 180 22 58 88 136 132 154 37 17 130 5 170 -21z"/>
<path d="M7065 3300 c-71 -12 -154 -50 -195 -91 -40 -40 -97 -140 -105 -183
-9 -44 18 -138 53 -189 21 -29 50 -49 132 -88 58 -28 134 -63 170 -77 99 -38
155 -103 143 -163 -11 -56 -86 -68 -230 -35 -108 24 -168 48 -225 87 -14 11
-29 19 -32 19 -3 0 -15 -18 -26 -39 -11 -22 -33 -60 -50 -84 -44 -66 -41 -77
38 -117 37 -19 87 -46 112 -60 69 -40 109 -48 244 -49 187 -3 282 29 363 123
45 50 58 98 58 206 -1 86 -4 101 -28 142 -35 60 -113 128 -173 152 -109 43
-175 79 -223 122 -49 44 -58 64 -45 99 27 68 234 56 344 -20 53 -37 66 -33 98
33 16 31 38 72 48 89 30 51 14 64 -112 96 -121 30 -265 41 -359 27z"/>
<path d="M2868 3282 c-33 -4 -34 -11 -9 -44 38 -48 42 -97 39 -498 l-3 -385
-27 -49 c-16 -27 -28 -49 -28 -51 0 -1 157 -3 349 -4 l350 -2 6 43 c3 24 8 52
9 63 2 11 8 20 14 20 21 0 54 77 60 137 5 65 -2 71 -49 37 -16 -11 -68 -36
-116 -56 -76 -31 -103 -36 -192 -40 -81 -4 -105 -2 -112 8 -11 17 -12 216 -1
222 4 3 81 10 172 17 91 6 166 12 167 13 0 1 3 27 5 57 l3 55 -40 -1 c-22 -1
-97 -4 -166 -9 -90 -5 -128 -4 -133 4 -4 6 -8 75 -8 154 l-1 142 92 3 c108 3
145 -11 239 -91 31 -26 65 -53 75 -58 31 -17 32 20 5 131 -15 58 -30 125 -33
149 l-7 44 -317 -4 c-174 -2 -328 -5 -343 -7z"/>
<path d="M5349 3280 c-4 -3 3 -28 17 -55 l25 -50 -3 -320 c-3 -311 -4 -321
-25 -356 -48 -76 -151 -81 -208 -11 -40 51 -43 78 -44 359 l-1 272 40 77 c22
43 40 79 40 81 0 2 -78 3 -174 3 -176 0 -201 -5 -176 -35 25 -30 30 -97 30
-350 0 -143 4 -298 10 -345 25 -213 149 -320 369 -320 72 0 97 5 154 30 119
50 170 104 199 210 6 19 13 186 17 370 l6 335 28 49 c15 27 26 50 25 52 -6 5
-320 9 -329 4z"/>
<path d="M5850 3284 c0 -3 12 -31 27 -62 l28 -57 0 -410 0 -410 -28 -47 c-26
-45 -23 -69 5 -52 7 5 162 7 344 6 l331 -3 7 32 c4 21 2 35 -5 40 -8 5 -6 16
9 36 23 33 72 170 72 202 0 29 -10 27 -99 -23 -108 -62 -188 -86 -280 -86 -42
0 -81 4 -88 8 -7 4 -13 48 -15 117 l-3 110 140 12 c172 15 202 20 202 36 0 6
3 29 7 51 l7 39 -173 -4 -173 -4 -3 144 c-2 109 1 146 10 153 19 11 162 10
213 -3 40 -10 85 -42 183 -128 30 -28 33 -28 42 -11 6 12 7 21 0 25 -5 3 -7
12 -3 20 3 9 1 21 -5 28 -16 20 -52 160 -52 205 l0 42 -350 0 c-192 0 -350 -3
-350 -6z"/>
<path d="M7685 3275 c-2 -5 -9 -35 -16 -65 -6 -30 -23 -86 -36 -123 -14 -38
-22 -71 -19 -74 7 -7 88 36 182 97 42 28 79 48 82 46 2 -3 3 -181 3 -396 l-2
-391 -30 -50 c-16 -27 -29 -54 -29 -59 0 -6 78 -10 195 -10 145 0 195 3 195
12 0 7 -12 30 -27 52 l-28 39 -3 390 c-2 215 0 397 2 404 5 11 15 7 43 -15 46
-36 221 -127 229 -119 5 5 -18 93 -57 214 l-21 63 -330 -2 c-217 -2 -331 -6
-333 -13z"/>
<path d="M6130 1991 c0 -50 -37 -187 -99 -371 -22 -63 -49 -158 -61 -210 -12
-52 -34 -128 -50 -167 l-28 -73 107 0 107 0 10 100 c6 55 12 102 15 104 2 2
27 0 56 -4 28 -5 78 -5 110 0 32 4 60 6 62 4 6 -5 31 -148 31 -176 l0 -28 93
-1 c50 -1 104 -3 120 -5 15 -1 27 1 27 5 0 4 -16 61 -35 126 -19 65 -32 121
-30 126 3 4 1 9 -4 11 -5 1 -11 19 -14 38 -5 36 -83 319 -98 355 -4 11 -11 31
-14 45 -5 20 -4 22 5 10 13 -18 7 24 -17 108 l-15 53 -139 -2 -139 -2 0 -46z
m166 -351 c25 -113 33 -164 25 -169 -12 -8 -171 -15 -171 -7 0 10 71 302 82
335 15 48 22 31 64 -159z"/>
<path d="M3085 1848 c-10 -54 -16 -100 -13 -103 3 -3 21 4 41 17 19 13 50 32
68 43 18 11 46 28 61 37 15 10 28 17 28 15 7 -32 -1 -504 -8 -532 -20 -78 -26
-155 -11 -156 31 -2 88 -3 158 -1 l74 2 -9 43 c-9 43 -7 617 2 627 3 2 24 -6
47 -19 23 -13 66 -37 95 -53 l52 -30 0 24 c0 25 -26 167 -31 173 -2 1 -124 5
-270 7 l-265 3 -19 -97z"/>
<path d="M4890 1917 c0 -13 -65 -14 -99 -2 -10 4 -12 -1 -7 -17 3 -13 6 -40 6
-61 0 -23 4 -36 10 -32 11 7 12 -257 1 -492 l-6 -143 261 2 262 1 5 41 c4 23
9 56 13 74 l7 34 -84 -7 c-46 -4 -106 -11 -133 -16 -27 -5 -64 -9 -82 -9 l-34
0 0 84 0 83 53 2 c66 1 104 -14 123 -50 9 -18 19 -26 29 -23 18 7 75 123 75
152 0 25 -71 55 -121 50 -29 -3 -34 -7 -37 -31 -3 -27 -5 -27 -63 -25 l-59 2
1 76 c1 41 4 84 7 96 l7 21 63 -22 c34 -12 59 -25 55 -28 -3 -4 -1 -7 5 -7 6
0 14 5 17 10 5 8 11 8 19 1 9 -7 17 -7 26 2 10 10 12 8 7 -10 -9 -38 19 -34
62 10 23 22 41 46 41 53 0 7 3 20 7 30 5 14 2 16 -21 10 -25 -6 -27 -5 -21 16
4 13 11 27 16 33 20 20 8 45 -27 60 -40 17 -100 20 -108 6 -6 -9 -18 -8 -116
9 l-45 8 50 3 50 2 -65 6 c-42 4 -77 1 -97 -7 -28 -10 -33 -10 -33 3 0 8 -4
15 -10 15 -5 0 -10 -6 -10 -13z"/>
<path d="M3886 1583 c-3 -164 -9 -324 -12 -355 l-6 -58 116 0 116 0 -6 33 c-3
17 -10 48 -15 67 -10 38 -12 130 -4 130 3 0 19 -10 35 -21 24 -18 37 -21 75
-16 26 4 56 14 68 22 12 8 29 15 39 15 15 0 18 -9 17 -57 0 -32 -4 -84 -8
-115 l-7 -58 114 0 114 0 -7 28 c-6 21 -13 314 -15 640 l0 42 -106 0 -105 0 7
-79 c3 -44 3 -100 0 -126 l-7 -45 -100 2 -100 2 3 123 3 123 -102 0 -101 0 -6
-297z"/>
<path d="M6843 1525 l2 -355 106 0 c105 0 107 0 113 25 3 13 -1 66 -10 117
-13 74 -15 136 -11 308 3 118 9 225 12 238 7 22 7 22 -103 22 l-110 0 1 -355z"/>
</g>
</svg>
